<svg width="64" height="64" viewBox="0 0 64 64" fill="none" xmlns="http://www.w3.org/2000/svg">
<path d="M54.8772 20.0861C54.8772 14.6227 50.4312 10.1809 44.9656 10.1809C44.0992 10.1809 43.2652 10.3986 42.4354 10.6206C42.2156 5.349 37.9312 1.10547 32.6057 1.10547C27.2522 1.10547 22.9332 5.3921 22.7608 10.7025C21.8643 10.4395 20.9613 10.1809 20.0108 10.1809C14.5475 10.1809 10.1035 14.6227 10.1035 20.0861C10.1035 24.3598 12.8514 27.9266 16.6466 29.3145C15.5755 30.9201 14.9203 32.7951 14.9203 34.7715C14.9203 40.2326 19.3665 44.6745 24.8276 44.6745C28.0065 44.6745 30.7824 43.084 32.6057 40.6939C34.429 43.084 37.207 44.6745 40.3837 44.6745C45.847 44.6745 50.2954 40.2326 50.2954 34.7715C50.2954 32.7456 49.6402 30.8727 48.5496 29.2714C52.2414 27.8253 54.8772 24.28 54.8772 20.0861Z" fill="#F3AA3C"/>
<path d="M32.332 15.668C27.6294 15.668 23.804 19.4934 23.804 24.196C23.804 28.8986 27.6294 32.724 32.332 32.724C37.0345 32.724 40.86 28.8986 40.86 24.196C40.86 19.4934 37.0345 15.668 32.332 15.668Z" fill="#6E3C13"/>
<path d="M33.511 59.1439C33.511 59.1439 40.0821 59.937 45.9808 56.7322C51.8817 53.5254 54.8773 47.5362 54.8773 47.5362C54.8773 47.5362 48.3084 46.743 42.4096 49.9478C36.5088 53.1525 33.511 59.1439 33.511 59.1439Z" fill="#377D22"/>
<path d="M31.4699 59.1439C31.4699 59.1439 24.8988 59.937 18.9979 56.7322C13.0992 53.5254 10.1035 47.5362 10.1035 47.5362C10.1035 47.5362 16.6703 46.743 22.5691 49.9478C28.4699 53.1525 31.4699 59.1439 31.4699 59.1439Z" fill="#5FB635"/>
<path d="M40.3836 45.7759C37.457 45.7759 34.6864 44.555 32.6056 42.3858C30.5253 44.555 27.7543 45.7759 24.8276 45.7759C18.7565 45.7759 13.8168 40.8384 13.8168 34.7694C13.8168 33.084 14.2446 31.3971 15.0619 29.8254C11.389 27.9671 9 24.1994 9 20.084C9 14.014 13.9397 9.07543 20.0108 9.07543C20.6352 9.07543 21.2273 9.16702 21.7856 9.29418C22.6072 3.98437 27.1234 0 32.6056 0C38.042 0 42.555 3.9655 43.4041 9.24623C43.8987 9.14601 44.4203 9.07543 44.9655 9.07543C51.0399 9.07543 55.9806 14.014 55.9806 20.084C55.9806 24.1837 53.723 27.8556 50.1303 29.7565C50.9634 31.3303 51.3987 33.041 51.3987 34.7694C51.3987 40.8384 46.4579 45.7759 40.3836 45.7759ZM32.6056 38.8728L33.4828 40.0226C35.2015 42.2759 37.7177 43.5689 40.3836 43.5689C45.2402 43.5689 49.1919 39.6207 49.1919 34.7694C49.1919 33.0705 48.6541 31.3836 47.6369 29.8906L46.8588 28.7468L48.1477 28.2419C51.5657 26.903 53.7737 23.701 53.7737 20.084C53.7737 15.2306 49.8222 11.2823 44.9655 11.2823C44.223 11.2823 43.4602 11.4865 42.7209 11.6843L41.3901 12.0404L41.3329 10.6643C41.1347 5.92188 37.3018 2.2069 32.6056 2.2069C27.8588 2.2069 24.0188 5.95365 23.8637 10.736L23.8173 12.16L22.4504 11.7592C21.6509 11.5248 20.8238 11.2823 20.0108 11.2823C15.1563 11.2823 11.2069 15.2306 11.2069 20.084C11.2069 23.7678 13.4908 26.9833 17.0253 28.2764L18.3432 28.7581L17.5646 29.9251C16.5566 31.4359 16.0237 33.111 16.0237 34.7694C16.0237 39.6207 19.9731 43.5689 24.8276 43.5689C27.4935 43.5689 30.0092 42.2759 31.7284 40.0226L32.6056 38.8728Z" fill="#242811"/>
<path d="M32.3319 33.8254C27.021 33.8254 22.7004 29.5048 22.7004 24.194C22.7004 18.8831 27.021 14.5625 32.3319 14.5625C37.6434 14.5625 41.9634 18.8831 41.9634 24.194C41.9634 29.5048 37.6434 33.8254 32.3319 33.8254ZM32.3319 16.7694C28.2382 16.7694 24.9073 20.1002 24.9073 24.194C24.9073 28.2877 28.2382 31.6185 32.3319 31.6185C36.4257 31.6185 39.7565 28.2877 39.7565 24.194C39.7565 20.1002 36.4257 16.7694 32.3319 16.7694Z" fill="#242811"/>
<path d="M35.4086 60.3308C34.1791 60.3308 33.4108 60.2403 33.379 60.236C33.0223 60.1929 32.7093 59.9795 32.539 59.6638C32.3693 59.3481 32.3634 58.9688 32.5239 58.6476C32.6527 58.3901 35.748 52.3071 41.8828 48.9752C46.0983 46.6843 50.6457 46.3438 52.9797 46.3438C54.2093 46.3438 54.9776 46.4343 55.0099 46.4386C55.3655 46.4817 55.6791 46.6951 55.8494 47.0108C56.0186 47.3265 56.025 47.7059 55.8645 48.0269C55.7363 48.2845 52.6436 54.3653 46.5078 57.6994C42.2922 59.9892 37.7448 60.3308 35.4086 60.3308ZM35.3979 58.124C35.4021 58.124 35.4054 58.124 35.4086 58.124C37.5346 58.124 41.6672 57.8179 45.4538 55.7597C49.2125 53.7177 51.7448 50.4515 52.9905 48.5507C52.9872 48.5507 52.984 48.5507 52.9797 48.5507C50.8547 48.5507 46.7232 48.8567 42.9366 50.9149C39.178 52.9558 36.6447 56.222 35.3979 58.124Z" fill="#242811"/>
<path d="M29.5717 60.3308C27.236 60.3308 22.6886 59.9903 18.4715 57.6994C12.3379 54.3653 9.2452 48.2845 9.11643 48.0269C8.95588 47.7059 8.96181 47.3265 9.1315 47.0108C9.30179 46.6951 9.61482 46.4817 9.9715 46.4386C10.0033 46.4343 10.7711 46.3438 12.0006 46.3438C14.3347 46.3438 18.8799 46.6843 23.0959 48.9752C29.2307 52.3071 32.3276 58.3901 32.4564 58.6476C32.6175 58.9688 32.6116 59.3481 32.4419 59.6638C32.2716 59.9795 31.9586 60.1929 31.6019 60.236C31.5701 60.2403 30.8018 60.3308 29.5717 60.3308ZM11.9931 48.5507C13.2441 50.4548 15.7818 53.7253 19.5248 55.7597C23.3131 57.8179 27.4456 58.124 29.5717 58.124C29.5744 58.124 29.5771 58.124 29.5798 58.124C28.3271 56.2188 25.7867 52.9483 22.0426 50.9149C18.2549 48.8567 14.1251 48.5507 12.0006 48.5507C11.9979 48.5507 11.9957 48.5507 11.9931 48.5507Z" fill="#242811"/>
<path d="M33.4354 63.9973H31.2285V41.6094H33.4354V63.9973Z" fill="#242811"/>
</svg>
